# xmcd
#
# Track frame offsets: 
#        216
#        12836
#        32493
#        51639
#        70059
#        89729
#        132625
#        158080
#        181955
#        194750
#        218989
#        233319
#        249912
#        266019
#        281215
#        299446
#
# Disc length: 4303 seconds
#
# Revision: 0
# Processed by: cddbd v1.5.2PL0 Copyright (c) Steve Scherf et al.
# Submitted via: ExactAudioCopy v0.95a5
#
DISCID=f510cd10
DTITLE=Various Artist - 一份跨世纪的情感
DYEAR=1995
DGENRE=HDCD
TTITLE0=时光倒流七十年
TTITLE1=柔情如丝
TTITLE2=G弦上的咏叹调
TTITLE3=蓝色多瑙河
TTITLE4=费加罗婚礼序曲
TTITLE5=皇家焰火音乐
TTITLE6=爱之梦
TTITLE7=雨滴
TTITLE8=梦幻曲
TTITLE9=梁山伯与祝英台
TTITLE10=梦里相思
TTITLE11=茉莉花
TTITLE12=爱情故事
TTITLE13=爱情罗曼史
TTITLE14=回忆
TTITLE15=婚礼进行曲
EXTD=
EXTT0=
EXTT1=
EXTT2=
EXTT3=
EXTT4=
EXTT5=
EXTT6=
EXTT7=
EXTT8=
EXTT9=
EXTT10=
EXTT11=
EXTT12=
EXTT13=
EXTT14=
EXTT15=
PLAYORDER=
